<?xml version="1.0" encoding="UTF-8"?>
<svg version="1.1" viewBox="0 0 2048 837" width="100" height="50" xmlns="http://www.w3.org/2000/svg">
<path transform="translate(0)" d="m0 0h2048v837h-2048z" fill="#FDFDFD"/>
<path transform="translate(1500,263)" d="m0 0h28l20 3 21 6 18 8 4 2-3 23-16 108v11l3 6 7 5-5 13-9 20-1 1-11-1-13-5-10-8-6-9-2-8h-2l-2 4-9 10-10 8-14 7-13 3h-18l-16-4-11-6-5-4-5 1-16 7-16 4-15 2h-22l-13-3-12-6-10-9-5-8-3-8-1-6v-14l20-144 1-3h51v8l-17 121-1 13 2 10 4 5 2 1h13l12-5 8-7 1-2v-30l2-18 5-21 6-16 8-16 8-11 9-10 11-10 15-9 17-6z" fill="#5C3C2E"/>
<path transform="translate(1284,185)" d="m0 0 3 1-10 73-22 157 1 9 2 2h11l4-1 2 7 5 27-1 4-12 4-11 2h-20l-11-3-9-5-8-9-4-10-2-10v-6l-16 12-20 12-17 8-18 6-12 3-14 2h-32l-17-3-14-5-10-6-10-9-7-8-8-16-4-16-1-9v-21l3-22 6-21 7-16 8-13 8-10 11-11 15-10 14-6 16-4 7-1h26l16 3 13 5 11 7 8 8 5 8 4 13v18l-3 12-5 10-8 10-11 9-10 6-20 8-18 5-25 5-24 3v9l3 10 5 8 6 5 10 4 13 1 21-2 19-5 17-7 16-10 11-9 9-8 9-11 7-10 6-10 4-11 22-154 1-2 14-2z" fill="#5C3C2E"/>
<path transform="translate(761,263)" d="m0 0h26l16 3 13 5 11 7 8 8 6 10 3 10v20l-4 13-4 8-8 10-11 9-12 7-21 8-23 6-32 5-9 1v9l4 12 4 6 6 5 10 4h28l19-4 19-7 18-10 16-13 10-10 11-15 9-17 5-16 7-49 3-19h45v34l7-12 11-12 8-7 14-7 9-2h12l13 3-4 16-10 34-2 1-12-2-12 1-12 6-7 6-7 10-8 15-7 18-12 87-1 6h-52l3-25 1-12-16 12-18 11-19 9-21 7-16 3-8 1h-31l-17-3-14-5-10-6-10-9-6-7-6-10-6-18-2-15v-19l2-17 5-21 8-20 9-15 8-10 11-11 15-10 17-7z" fill="#5C3C2E"/>
<path transform="translate(585,203)" d="m0 0h21l19 3 15 5 13 7 10 8 6 6-2 4-10 9-16 16-4-1-11-8-12-5-10-2h-15l-15 4-12 7-9 8-10 14-8 17-6 19-4 19-2 18v27l3 16 5 12 6 8v2l4 2 8 5 11 3h19l15-4 19-10 8-6h3l15 24 5 9-11 9-15 9-19 8-17 4-8 1h-23l-18-3-16-6-11-6-10-8-8-8-9-14-5-11-5-17-2-11-1-12v-18l2-22 5-25 8-24 9-19 9-14 8-10 14-14 13-9 16-8 15-5z" fill="#5C3C2E"/>
<path transform="translate(1505,301)" d="m0 0h19l12 3 1 5-14 92-8 11-6 7-11 8-11 4h-10l-8-3-5-4-5-10-2-8v-29l3-19 6-20 7-14 8-10 7-6 12-6z" fill="#FDFDFD"/>
<path transform="translate(1642,358)" d="m0 0h203v22h-203l-1-3z" fill="#EE6B01"/>
<path transform="translate(1642,316)" d="m0 0h203v22h-203l-1-21z" fill="#F8D90C"/>
<path transform="translate(203,358)" d="m0 0h203v22h-203z" fill="#EE6B01"/>
<path transform="translate(203,316)" d="m0 0h203v22h-203z" fill="#F8D90C"/>
<path transform="translate(1148,160)" d="m0 0h3l14 37v3l-85 33h-3l-10-24 1-4 29-16 24-14 24-13z" fill="#5D3C2E"/>
<path transform="translate(812,160)" d="m0 0h3l13 34 1 6-85 33h-3l-10-25 1-3 22-12 21-12 25-14z" fill="#5D3C2E"/>
<path transform="translate(1361,168)" d="m0 0h12l11 4 7 7 4 10v12l-3 10-6 8-7 6-11 4h-15l-10-4-7-7-4-11v-11l4-11 5-7 10-7z" fill="#5D3C2E"/>
<path transform="translate(1098,299)" d="m0 0h16l8 4 4 5 2 6v8l-3 10-5 7-11 8-11 5-13 4-24 4-4-1 3-15 6-16 7-12 8-9 10-6z" fill="#FDFDFD"/>
<path transform="translate(762,299)" d="m0 0h16l8 4 5 7 1 4v9l-3 9-5 7-11 8-11 5-13 4-25 4-3-1 3-15 6-16 7-12 7-8 11-7z" fill="#FDFDFD"/>
<path transform="translate(1445,555)" d="m0 0h9l1 1v78h-9l-1-5-8 5-3 1h-10l-8-4-6-9-2-8v-15l3-10 4-6 5-4 4-2h11l8 4 1 1z" fill="#5E3C2E"/>
<path transform="translate(471,555)" d="m0 0h9l1 1v77l-1 1h-8l-2-6-7 6-3 1h-11l-8-5-5-8-2-7v-17l4-11 6-7 6-3h11l6 3 3 2z" fill="#653F2C"/>
<path transform="translate(592,555)" d="m0 0h9l1 1v78h-9l-1-6-8 6-3 1h-11l-9-6-4-7-2-9v-13l4-13 6-7 6-3h12l8 5z" fill="#5E3C2E"/>
<path transform="translate(1835,555)" d="m0 0h9l1 1v78h-9l-1-6-6 5-4 2h-11l-8-4-5-7-3-11v-13l4-13 6-7 7-3h11l8 5z" fill="#5E3C2E"/>
<path transform="translate(1241,577)" d="m0 0h12l6 3 5 6 3 8 1 7v9l-2 10-4 8-6 5-5 2h-11l-6-3-3-2v25l-1 1h-9v-77l1-1h8v6l9-6z" fill="#5E3C2E"/>
<path transform="translate(1503,555)" d="m0 0h9l1 28 9-6h12l8 5 4 6 3 11v13l-4 13-6 7-6 3h-11l-6-3-4-3-1 5h-8z" fill="#5F3C2E"/>
<path transform="translate(1693,577)" d="m0 0h13l10 5 6 9 2 8v14l-3 10-8 9-7 3h-13l-7-3-7-6-4-9-1-6v-11l3-10 6-8 7-4z" fill="#603D2D"/>
<path transform="translate(1754,577)" d="m0 0h14l8 4 6 7 3 7 1 6v10l-4 13-6 7-9 4h-13l-8-4-5-5-4-8-1-4v-15l3-10 8-9z" fill="#5F3D2D"/>
<path transform="translate(267,577)" d="m0 0h13l10 5 6 9 2 8v14l-4 11-6 7-5 3-4 1h-12l-8-3-7-8-3-7-1-5v-12l3-10 6-8 7-4z" fill="#5F3D2D"/>
<path transform="translate(664,577)" d="m0 0h13l9 4 6 7 3 9v18l-4 10-4 5-10 5h-13l-10-5-6-8-2-6v-19l4-10 4-5z" fill="#5F3D2E"/>
<path transform="translate(1367,577)" d="m0 0h12l8 4 5 6 3 7 1 14-1 1h-35l3 11 5 5 2 1h11l9-3 3 4-1 3-8 4-3 1h-14l-8-4-6-7-3-7-1-14 2-10 4-8 7-6z" fill="#5F3D2D"/>
<path transform="translate(514,577)" d="m0 0h12l8 4 6 7 3 12v8l-1 1h-35l3 11 5 5 2 1h11l9-3 3 4-1 3-8 4-3 1h-13l-8-3-7-8-3-8v-19l3-9 7-8z" fill="#5F3D2D"/>
<path transform="translate(1556,578)" d="m0 0h10l14 45 2-3 12-40 1-2h10l-3 11-12 36-6 17-6 8-6 4-6 2h-6v-7l9-4 5-5 3-6-4-1-17-51z" fill="#613D2D"/>
<path transform="translate(732,577)" d="m0 0h11l7 4 3 5 1 4v44h-10l-1-44-3-4-6-1-7 3-5 6-1 40h-10v-56h9v7l9-7z" fill="#5D3C2E"/>
<path transform="translate(396,577)" d="m0 0h11l6 3 4 6 1 3v45h-10l-1-44-3-4-6-1-7 3-5 6-1 40h-9l-1-1v-54l1-1h8v7l8-6z" fill="#623E2C"/>
<path transform="translate(1131,577)" d="m0 0h11l7 4 3 6 1 4v43h-10l-1-43-3-5-6-1-7 3-5 5-1 41h-10v-56h8l1 1v6h2l1-3 6-4z" fill="#5D3C2E"/>
<path transform="translate(880,578)" d="m0 0h9l1 44 1 4 7 1 7-2 6-7 1-40h9v56h-8l-1-6-8 6-3 1h-12l-6-4-3-5-1-4v-43z" fill="#5D3C2E"/>
<path transform="translate(314,578)" d="m0 0h9l1 43 1 5h12l7-6 1-2 1-40h9l1 2-1 54h-8v-7l-9 7-3 1h-11l-6-3-4-6-1-6v-41z" fill="#623E2C"/>
<path transform="translate(203,561)" d="m0 0h39l-1 8h-28v25h24v8h-24v32h-10z" fill="#5C3C2E"/>
<path transform="translate(1181,577)" d="m0 0h13l10 4 2 3-3 5-9-3-7-1-7 2-2 3 1 6 9 4 11 4 5 3 4 8-1 10-5 6-9 4h-15l-10-4-3-2 2-4 2-3 10 4h12l5-3v-8l-3-3-17-6-6-4-3-6v-7l4-7 6-4z" fill="#5F3D2D"/>
<path transform="translate(950,577)" d="m0 0h14l11 5-1 4-2 3-9-3-7-1-7 2-1 1v9l21 7 5 4 3 6v9l-4 6-5 4-6 2h-15l-10-4-3-4 6-5 8 4h12l5-3 1-6-2-4-10-4-11-4-6-7-1-8 4-8z" fill="#5F3D2D"/>
<path transform="translate(1660,554)" d="m0 0 11 1 4 2-1 6-4 1-9-1-5 1-1 14h13v6l-1 2h-12v48h-10v-48h-9l-1-1v-7h10v-12l3-6 5-4z" fill="#603D2D"/>
<path transform="translate(665,585)" d="m0 0h11l6 5 3 10v12l-3 10-4 4-3 1h-10l-6-5-3-9v-14l3-8 4-5z" fill="#FDFDFD"/>
<path transform="translate(1756,585)" d="m0 0h10l5 3 3 6 1 4v16l-3 8-6 5h-10l-6-4-3-7-1-13 2-10 4-6z" fill="#FDFDFD"/>
<path transform="translate(1694,585)" d="m0 0h10l5 3 4 8 1 13-2 10-4 6-4 2h-10l-7-6-2-6v-18l3-7z" fill="#FDFDFD"/>
<path transform="translate(268,585)" d="m0 0h10l6 4 3 7v20l-4 8-5 3h-10l-7-6-2-6v-18l4-8z" fill="#FDFDFD"/>
<path transform="translate(457,584)" d="m0 0 8 2 5 4 1 2v27l-5 6-4 2h-10l-6-7-2-9v-9l2-9 4-6z" fill="#FDFDFD"/>
<path transform="translate(1431,584)" d="m0 0 8 2 6 5v29l-8 7h-10l-6-5-2-6-1-12 2-11 4-6z" fill="#FDFDFD"/>
<path transform="translate(999,564)" d="m0 0h2v14h13v6l-1 2h-12l1 37 2 3h7l5-1 2 4-1 4-5 2h-11l-5-3-4-5-1-4v-37h-9l-1-1v-6l1-1h9v-12l1-1z" fill="#613D2D"/>
<path transform="translate(579,584)" d="m0 0 9 3 4 4v29l-8 7h-10l-6-5-2-6v-19l3-8 5-4z" fill="#FDFDFD"/>
<path transform="translate(1817,585)" d="m0 0h10l6 4 2 2v29l-8 7h-10l-5-4-3-7v-19l3-7z" fill="#FDFDFD"/>
<path transform="translate(1521,585)" d="m0 0h9l5 4 3 7v19l-4 9-4 3h-10l-6-4-2-3v-27l5-6z" fill="#FDFDFD"/>
<path transform="translate(1244,584)" d="m0 0 7 2 4 5 2 6v17l-3 8-6 5h-9l-6-4-2-2v-28l5-6z" fill="#FDFDFD"/>
<path transform="translate(809,564)" d="m0 0h2l1 13 12 1 1 2-2 6h-12l1 34 1 6h9l4-1 3 5-1 3-6 2h-11l-6-4-3-6v-39h-10v-8l9-1 1-12z" fill="#603D2D"/>
<path transform="translate(859,577)" d="m0 0h10l-2 10h-7l-5 2-5 10-1 35h-10v-56h8l1 1 1 8 4-6z" fill="#5C3C2E"/>
<path transform="translate(1333,577)" d="m0 0h10l-1 10h-7l-6 3-4 8-1 4-1 32h-9v-56h8l2 8 7-8z" fill="#5E3C2E"/>
<path transform="translate(1284,578)" d="m0 0h10v56h-10z" fill="#5C3C2E"/>
<path transform="translate(1081,578)" d="m0 0h9v56h-9l-1-1v-54z" fill="#6A402A"/>
<path transform="translate(1372,584)" d="m0 0 8 2 5 6 1 10h-26l1-9 4-6z" fill="#FDFDFD"/>
<path transform="translate(515,585)" d="m0 0h10l6 5 2 6v6h-26l1-9 4-6z" fill="#FDFDFD"/>
<path transform="translate(1028,623)" d="m0 0h7l3 3-1 9-7 15-6 1-1-3 3-11-1-4-1-5 2-4z" fill="#613D2D"/>
<path transform="translate(1083,551)" d="m0 0 7 1 2 3v6l-3 3-5 1-5-3-1-5 3-5z" fill="#663F2B"/>
<path transform="translate(1287,551)" d="m0 0 6 1 3 4-1 6-5 3-6-2-2-3v-5z" fill="#623E2C"/>
</svg>
